<svg version="1.1" id="Layer_1" xmlns="http://www.w3.org/2000/svg" xmlns:xlink="http://www.w3.org/1999/xlink" x="0px" y="0px"
	 width="100%" viewBox="361.242 128.57 302.131 266.72" enable-background="new 0 0 302.131 266.72" xml:space="preserve">
<path fill="#000000" opacity="1.000000" stroke="none" 
	d="
M486.133850,380.211243 
	C461.202637,391.782715 435.733765,396.173309 409.021545,389.612640 
	C380.112366,382.512451 362.382141,361.499451 361.282349,331.892731 
	C360.669220,315.387177 367.121460,301.023621 378.270569,288.832977 
	C384.163177,282.389923 390.849884,276.928955 398.456055,272.622986 
	C403.240356,269.914551 408.023529,267.201935 412.856140,264.581512 
	C423.900360,258.592957 424.021667,258.007080 416.067230,248.818283 
	C410.741730,242.666412 408.596100,235.893692 412.406403,228.125748 
	C413.178925,226.550797 413.125641,224.950928 413.200012,223.277267 
	C413.382324,219.172485 414.317078,215.277802 418.061432,212.839920 
	C420.967804,210.947647 421.405792,208.509033 420.136475,205.500778 
	C418.519165,201.667831 416.715668,197.896805 415.376434,193.968201 
	C414.235260,190.620682 413.614960,186.948715 416.577118,184.142258 
	C419.531250,181.343460 423.110260,181.396072 426.878448,182.583084 
	C430.821350,183.825150 433.380676,186.478271 435.327484,189.915558 
	C437.967896,194.577515 439.875397,199.537476 441.354797,204.678711 
	C441.806519,206.248444 442.111755,208.133362 444.076813,208.514053 
	C446.194366,208.924271 446.886444,207.036743 447.712799,205.667831 
	C450.555664,200.958374 454.571320,198.034164 460.059296,197.236435 
	C467.421356,196.166290 473.028168,202.081863 469.515503,208.465591 
	C464.756378,217.114410 465.944885,224.613693 469.397430,233.063324 
	C471.937195,239.279037 470.306030,245.700882 467.251251,251.833282 
	C459.088135,268.220428 446.593506,280.185547 430.823669,289.115997 
	C423.979980,292.991577 417.700134,297.738922 412.893860,304.078583 
	C407.586823,311.078766 404.587128,318.775970 408.841095,327.313751 
	C413.409241,336.482208 422.167755,338.443237 431.269775,338.417358 
	C437.927856,338.398468 444.379089,336.366241 450.603851,333.832184 
	C453.950256,332.469910 455.092163,330.585266 454.063507,326.866364 
	C451.489624,317.561096 451.253113,308.148346 454.027557,298.791626 
	C461.679230,272.986572 490.111389,262.045593 514.721375,275.427032 
	C523.369995,280.129639 530.443970,286.751923 536.320251,294.470459 
	C541.981445,301.906494 547.510193,304.866394 557.260376,300.669464 
	C569.410583,295.439423 570.112854,295.632294 564.138550,283.589081 
	C560.943359,277.148163 556.942444,271.211182 552.983276,265.237518 
	C550.611511,261.658844 548.672424,261.652222 546.494873,265.446960 
	C543.402771,270.835571 538.294006,273.513367 532.579163,275.325470 
	C528.960693,276.472809 526.976440,275.729919 526.425842,271.538940 
	C525.933228,267.788635 526.297485,264.193146 527.250549,260.674347 
	C528.243652,257.007690 527.212708,255.027466 523.522278,253.996704 
	C517.893494,252.424530 513.404480,249.018539 509.713684,244.539871 
	C505.645905,239.603699 506.130005,237.682800 512.068909,235.650726 
	C515.540833,234.462784 519.101685,233.713623 522.820374,233.659576 
	C529.023743,233.569397 530.102234,231.983841 527.509705,226.414108 
	C521.371521,213.226776 517.872986,199.567963 518.622192,184.865875 
	C519.755859,162.620056 533.370972,139.571136 558.043457,131.139862 
	C571.841980,126.424538 584.489624,129.442230 597.688110,130.481262 
	C600.119873,130.672699 602.330322,131.531158 604.963684,130.572479 
	C617.236694,126.104378 627.047302,130.853760 631.419922,143.312683 
	C632.734802,147.059235 633.142578,151.125793 634.476074,154.863770 
	C636.082825,159.367554 637.805603,163.767227 643.384949,165.310455 
	C657.997498,169.352249 663.265015,184.872833 654.584106,197.776566 
	C653.281433,199.712830 651.922974,201.524429 651.296326,203.869202 
	C649.664062,209.977051 647.230164,215.376968 638.634460,214.402588 
	C640.504761,221.934601 643.113647,228.053955 650.475098,231.072372 
	C648.337524,233.368362 646.095093,233.459091 644.035583,233.198074 
	C639.424377,232.613632 635.674377,233.037842 635.391846,239.165878 
	C629.777771,237.397614 627.235474,233.536774 625.957092,228.695038 
	C625.274963,226.111435 624.341125,224.094650 621.259460,225.118973 
	C613.796265,227.599686 606.268433,227.941849 598.598755,226.328415 
	C597.857239,226.172424 597.016418,226.488464 596.116089,226.598267 
	C595.813965,230.852921 597.937073,232.779892 601.537170,233.986908 
	C605.755798,235.401230 610.644897,236.428635 612.396545,241.185455 
	C614.326721,246.427383 615.739014,251.894012 616.920776,257.361359 
	C617.416077,259.652893 617.824463,261.813629 618.979858,263.912445 
	C624.289917,273.558746 629.131836,283.425110 631.766235,294.200623 
	C632.362122,296.637848 633.521790,298.214752 635.960999,299.265533 
	C653.553894,306.843964 663.446838,319.869476 663.372437,339.442535 
	C663.296753,359.358368 652.095276,371.909882 635.146301,380.040100 
	C623.837341,385.464813 611.645264,387.174133 599.143005,386.465363 
	C595.446167,386.255829 591.962646,386.563660 588.394653,387.912170 
	C557.225159,399.692627 527.032349,397.309784 497.933838,381.164337 
	C494.179596,379.081299 490.650360,376.843903 486.133850,380.211243 
M613.238953,361.724579 
	C627.094299,343.908813 631.197266,323.837311 626.603027,301.969055 
	C624.484314,291.884399 621.683716,281.937469 615.499329,272.963409 
	C608.813904,280.845032 608.813904,280.845093 599.327942,277.519135 
	C598.543396,277.244019 597.771484,276.924530 596.972961,276.699097 
	C595.125671,276.177582 593.234192,274.714630 591.379272,276.488800 
	C589.337891,278.441315 590.661926,280.476440 591.482178,282.455322 
	C594.800293,290.460419 597.989136,298.499146 598.842957,307.241119 
	C600.961792,328.935150 596.283813,348.243347 579.408020,363.382538 
	C575.080444,367.264862 569.839294,369.837128 565.129456,373.334808 
	C575.009583,380.927246 586.380188,382.082886 595.995361,376.276642 
	C602.272217,372.486267 608.159546,368.103882 613.238953,361.724579 
M590.346008,217.882858 
	C592.654846,218.165802 594.960693,218.476089 597.273315,218.723862 
	C599.502258,218.962677 601.476501,218.238495 601.953247,215.966400 
	C602.455688,213.571976 601.598572,211.281158 599.340820,209.991364 
	C598.386169,209.446014 597.113159,209.414658 595.970581,209.248154 
	C583.731567,207.464737 572.252136,203.967194 563.290161,194.790955 
	C558.558289,189.945923 558.570984,189.933548 552.617615,191.056808 
	C552.282532,188.323471 553.665894,186.306488 555.087219,184.262955 
	C556.017212,182.925873 556.099548,181.453445 555.153259,180.054443 
	C554.209778,178.659592 552.806519,178.325226 551.211853,178.444763 
	C544.882324,178.919174 539.725159,185.766663 540.978455,191.989517 
	C542.344116,198.770264 546.398132,203.597656 551.899475,207.483551 
	C563.189514,215.458267 576.491028,216.002777 590.346008,217.882858 
M569.638306,221.109222 
	C563.678772,219.759567 560.664734,221.012817 559.528137,225.806335 
	C559.049927,227.823303 558.592590,229.234177 556.738647,230.581345 
	C554.040894,232.541687 554.166016,239.232086 556.973267,240.160995 
	C562.182007,241.884583 567.128296,243.802170 572.117981,246.192108 
	C576.756409,248.413818 583.207092,247.193756 588.794739,246.253464 
	C591.152710,245.856674 594.029785,245.513367 594.728882,242.520645 
	C595.372742,239.764175 593.637268,237.560989 591.747742,236.056885 
	C589.482117,234.253433 588.324585,232.161301 587.874512,229.426666 
	C587.258118,225.681503 585.102173,223.696335 581.199219,223.263229 
	C577.587585,222.862457 574.031982,221.957138 569.638306,221.109222 
M497.942993,336.754669 
	C504.572296,337.652466 505.005249,331.734741 507.044159,328.230103 
	C509.369720,327.676727 510.054840,330.432465 512.434875,330.112091 
	C510.025116,326.768494 507.903107,323.830353 505.788239,320.887115 
	C504.794525,319.504181 504.471436,317.357056 501.816681,318.151794 
	C498.825714,319.047180 495.072662,317.932404 493.512878,322.139465 
	C491.750244,326.893646 493.165405,333.000061 497.942993,336.754669 
M538.992554,346.244019 
	C557.630981,348.068359 572.852417,338.573334 573.149292,328.867432 
	C555.029724,349.572052 535.438843,346.050934 514.999939,333.044922 
	C521.280518,340.122955 528.118286,345.887970 538.992554,346.244019 
M609.889160,213.469162 
	C610.809387,209.588943 610.809387,209.588943 606.995850,210.264053 
	C607.079224,211.945740 607.318726,213.483597 609.889160,213.469162 
z"/>
<path fill="#000000" opacity="1.000000" stroke="none" 
	d="
M453.855347,169.645645 
	C452.678467,173.689468 451.658844,177.348404 450.566559,180.985519 
	C450.150635,182.370392 449.288086,183.386108 447.653442,182.961746 
	C446.294220,182.608871 445.972961,181.412643 446.019470,180.218765 
	C446.231781,174.769135 446.465729,169.319412 446.787109,163.875351 
	C446.946472,161.176025 448.687927,160.676407 450.991364,161.220840 
	C453.229706,161.749863 455.893921,161.876770 454.970825,165.411789 
	C454.636902,166.690598 454.312408,167.971893 453.855347,169.645645 
z"/>
<path fill="#000000" opacity="1.000000" stroke="none" 
	d="
M435.007202,181.201172 
	C432.582367,177.581192 430.396606,174.257706 428.201385,170.940445 
	C426.631500,168.568115 427.395386,167.048401 429.795135,165.803192 
	C432.308258,164.499176 433.818481,165.140625 434.829315,167.681137 
	C436.299500,171.376114 437.876038,175.028732 439.355682,178.720047 
	C439.900909,180.080231 440.717102,181.617935 438.997925,182.711472 
	C437.382233,183.739212 436.188751,182.860443 435.007202,181.201172 
z"/>
<path fill="#000000" opacity="1.000000" stroke="none" 
	d="
M468.991455,180.971039 
	C465.984650,183.079910 463.299561,185.017654 460.539337,186.841690 
	C459.336700,187.636429 457.940186,188.746979 456.560364,187.228821 
	C455.016510,185.530212 456.320190,184.181442 457.408081,182.927048 
	C459.684967,180.301666 461.984100,177.694916 464.312134,175.114792 
	C465.874908,173.382751 467.345764,171.264526 469.879395,174.053207 
	C472.179291,176.584595 472.878754,178.820282 468.991455,180.971039 
z"/>
</svg>
