<svg width="71" height="110" viewBox="0 0 71 110" fill="none" xmlns="http://www.w3.org/2000/svg">
<path d="M34.9691 109.592C34.4785 109.592 0.69934 107.799 0.69934 74.009C0.617112 65.579 1.27363 57.1577 2.66162 48.8387C4.51611 38.4297 4.23014 27.7604 1.82064 17.462C0.629258 8.97993 28.2413 0.980581 28.5216 0.911621H29.3626L30.2036 0.911621C30.6881 0.911533 31.1678 1.00653 31.6146 1.19103C32.0613 1.37554 32.4662 1.64586 32.8055 1.98618C33.1449 2.3265 33.4118 2.72998 33.5908 3.17304C33.7698 3.61609 33.8571 4.08982 33.8478 4.5665V5.25609H36.9314V4.5665C36.9314 3.59716 37.3227 2.66754 38.0193 1.98211C38.7159 1.29669 39.6606 0.911621 40.6457 0.911621H41.4867L42.3977 0.911621C42.3977 0.911621 70.4303 8.97992 69.0287 17.393C66.694 27.7006 66.4084 38.3554 68.1877 48.7697C69.6119 57.0844 70.2687 65.5089 70.15 73.9401C70.15 107.73 36.4408 109.523 36.0904 109.523L34.9691 109.592Z" fill="#111111"/>
<path d="M35.2766 109.681C34.786 109.681 1.00684 107.888 1.00684 74.0974C0.924607 65.6674 1.58113 57.2461 2.96911 48.9271C4.8236 38.5181 4.53764 27.8487 2.12814 17.5504C0.936753 9.0683 28.5488 1.06896 28.8291 1H29.6701H30.5111C30.9956 0.999912 31.4753 1.0949 31.9221 1.27941C32.3688 1.46392 32.7737 1.73424 33.113 2.07456C33.4524 2.41488 33.7193 2.81836 33.8983 3.26142C34.0773 3.70447 34.1646 4.1782 34.1553 4.65488V5.34447H37.2389V4.65488C37.2389 3.68554 37.6302 2.75591 38.3268 2.07049C39.0234 1.38507 39.9681 1 40.9532 1H41.7942H42.7052C42.7052 1 70.7378 9.0683 69.3362 17.4814C67.0015 27.789 66.7159 38.4438 68.4952 48.8581C69.9194 57.1728 70.5762 65.5973 70.4575 74.0285C70.4575 107.819 36.7483 109.612 36.3979 109.612L35.2766 109.681ZM9.62684 17.5504C11.9715 28.2564 12.2093 39.3053 10.3277 50.0994C8.94995 58.0247 8.31655 66.0579 8.43545 74.0974C8.2271 81.3676 10.9452 88.4246 15.9983 93.7326C21.0514 99.0406 28.0305 102.17 35.4168 102.44H36.1877C43.512 102.082 50.4022 98.9143 55.3807 93.6159C60.3591 88.3175 63.0293 81.3105 62.8186 74.0974C62.9027 66.059 62.2695 58.0289 60.9264 50.0994C59.0456 39.3079 59.2597 28.2635 61.5571 17.5504C56.1197 13.8604 50.1722 10.9575 43.8966 8.93038C43.2803 10.0395 42.366 10.9606 41.2536 11.5931C40.1413 12.2255 38.8737 12.5449 37.5893 12.5163H33.3844C32.1001 12.5449 30.8324 12.2255 29.7201 11.5931C28.6077 10.9606 27.6934 10.0395 27.0771 8.93038C20.8801 10.9884 15.0063 13.8899 9.62684 17.5504Z" fill="#C8C8C8"/>
<path d="M35.7355 40.6772C35.2739 40.6773 34.8169 40.5811 34.3912 40.3944C33.9655 40.2077 33.5797 39.9341 33.2564 39.5896C32.933 39.2452 32.6786 38.8368 32.5079 38.3884C32.3373 37.9399 32.2539 37.4604 32.2626 36.9779V25.332C32.2626 24.8552 32.3524 24.383 32.527 23.9425C32.7015 23.502 32.9573 23.1018 33.2798 22.7646C33.6023 22.4275 33.9852 22.16 34.4065 21.9776C34.8279 21.7951 35.2795 21.7012 35.7355 21.7012C36.1916 21.7012 36.6432 21.7951 37.0646 21.9776C37.4859 22.16 37.8688 22.4275 38.1913 22.7646C38.5138 23.1018 38.7696 23.502 38.9441 23.9425C39.1187 24.383 39.2085 24.8552 39.2085 25.332V36.9779C39.2172 37.4604 39.1338 37.9399 38.9632 38.3884C38.7925 38.8368 38.5381 39.2452 38.2147 39.5896C37.8914 39.9341 37.5056 40.2077 37.0799 40.3944C36.6542 40.5811 36.1972 40.6773 35.7355 40.6772Z" fill="#C8C8C8"/>
</svg>
